<svg xmlns="http://www.w3.org/2000/svg" version="1.1" xmlns:xlink="http://www.w3.org/1999/xlink" width="200" height="200"><svg xmlns="http://www.w3.org/2000/svg" version="1.1" xmlns:xlink="http://www.w3.org/1999/xlink" viewBox="0 0 200 200"><rect width="200" height="200" fill="url('#gradient')"></rect><defs><linearGradient id="SvgjsLinearGradient1001" gradientTransform="rotate(321 0.5 0.5)"><stop offset="0%" stop-color="#e2e1ba"></stop><stop offset="100%" stop-color="#fff8ea"></stop></linearGradient></defs><g><g fill="#acc6ca" transform="matrix(5.46403162055336,0,0,5.46403162055336,13.145780508603025,138.8486404181469)" stroke="#5aa3a6" stroke-width="0.35"><path d="M8.94 0L5.91-5.29L4.50-3.75L4.50 0L1.07 0L1.07-14.22L4.50-14.22L4.50-7.95L5.69-9.76L8.76-14.22L13.00-14.22L8.19-7.93L13.00 0L8.94 0ZM30.72-14.22L30.72 0L27.31 0L22.28-8.85L22.28 0L18.85 0L18.85-14.22L22.28-14.22L27.30-5.37L27.30-14.22L30.72-14.22Z"></path></g></g></svg><style>@media (prefers-color-scheme: light) { :root { filter: none; } }
@media (prefers-color-scheme: dark) { :root { filter: none; } }
</style></svg>